<?xml version="1.0" encoding="UTF-8"?>
<svg xmlns="http://www.w3.org/2000/svg" width="828" height="203" viewBox="0 0 828 203" fill="none">
  <g clip-path="url(#clip0_1672_680)">
    <path d="M1.3208 7.33643H20.2099V59.0892H29.4735V7.33643H58.9561V143.512H29.4735V86.8505H20.2099V143.512H1.3208V7.33643Z" fill="#323232"></path>
    <path d="M172.101 75.3355C172.101 119.194 157.626 146.722 115.497 146.722C77.2029 146.722 62.9004 119.67 62.9004 75.0275C62.9004 33.1289 77.2029 5.49817 117.288 5.49817C157.373 5.49817 172.101 33.6235 172.101 75.3448V75.3355ZM102.859 74.7662C102.859 106.167 104.623 115.256 113.289 115.256C121.956 115.256 124.76 106.521 124.76 74.4303C124.76 44.7 122.056 37.0575 113.19 37.0575C105.066 37.0575 102.85 44.4947 102.85 74.7569L102.859 74.7662Z" fill="#323232"></path>
    <path d="M204.135 42.6751H170.943V7.34583H295.595V42.6751H258.043V143.521H204.135V42.6751Z" fill="#323232"></path>
    <path d="M351.24 101.744C352.533 107.483 355.844 114.015 365.787 114.015C373.34 114.015 377.393 110.851 377.393 106.092C377.393 101.333 376.1 97.5725 354.922 93.4199C304.089 83.5192 299.114 63.531 299.114 45.7171C299.114 19.99 320.473 0.589722 363.769 0.589722C403.366 0.589722 430.75 15.8375 432.776 43.7295H378.316C377.212 37.7853 374.263 33.2408 365.606 33.2408C359.345 33.2408 356.215 35.8163 356.215 39.7822C356.215 44.532 361.743 46.9022 376.118 49.683C423.639 58.5946 436.34 76.0073 436.34 97.9831C436.34 128.273 410.187 147.067 366.899 147.067C319.749 147.067 297.151 127.275 293.288 101.744H351.249H351.24Z" fill="#323232"></path>
    <path d="M487.354 121.545L483.672 143.521H431.039L467.696 7.34583H540.701L573.458 143.521H521.477L517.515 121.545H487.326H487.336H487.354ZM510.467 84.9283C508.685 74.3277 504.289 53.8543 502.09 38.8118H502.733C500.516 54.4515 497.124 71.3322 494.681 84.9283H510.486H510.477H510.467Z" fill="#323232"></path>
    <path d="M618.383 7.33643V103.834C618.383 111.281 625.159 115.228 631.302 115.228C637.037 115.228 643.849 111.486 643.849 103.834V7.33643H687.951V98.3377C687.951 134.003 660.26 147.384 629.158 147.384C598.056 147.384 569.713 132.892 569.713 98.0484V7.33643H618.383Z" fill="#323232"></path>
    <path d="M778.76 96.6581V98.1604C778.76 124.485 770.862 147.394 739.932 147.394C712.069 147.394 693.994 131.045 693.994 80.7384V71.9574C693.994 20.0927 716.33 3.92114 740.783 3.92114C771.088 3.92114 778.76 29.079 778.76 52.2399V53.9942H743.469V51.764C743.469 39.9689 741.859 35.4524 739.109 35.4524C736.865 35.4524 733.31 40.2209 733.31 70.763V80.6265C733.31 112.774 736.377 117.103 739.055 117.103C742.004 117.103 743.623 112.092 743.623 99.0283V96.6581H778.769H778.76Z" fill="#323232"></path>
    <path d="M823.395 82.7447H807.338V117.579H828L824.689 143.512H783.971V7.33643H824.508V33.2688H807.338V56.831H823.395V82.7633V82.7447Z" fill="#323232"></path>
    <path d="M306.894 193.594V165.413H311.137V176.517C312.476 174.455 314.484 173.447 317.153 173.429C319.432 173.429 321.196 174.129 322.436 175.519C323.684 176.909 324.308 178.85 324.308 181.332V193.585H320.066V181.939C320.066 178.72 318.672 177.115 315.904 177.115C314.511 177.115 313.371 177.553 312.485 178.402C311.598 179.27 311.146 180.493 311.146 182.06V193.575H306.903L306.885 193.603L306.894 193.594Z" fill="#323232"></path>
    <path d="M344.364 191.177C342.483 193.118 340.104 194.089 337.254 194.089C334.404 194.089 332.025 193.118 330.116 191.177C328.216 189.236 327.267 186.754 327.267 183.759C327.267 180.763 328.225 178.29 330.116 176.368C332.016 174.436 334.386 173.466 337.254 173.466C340.122 173.466 342.483 174.436 344.364 176.368C346.246 178.3 347.187 180.763 347.187 183.759C347.187 186.754 346.246 189.236 344.364 191.177ZM333.219 188.695C334.232 189.917 335.562 190.524 337.254 190.524C338.946 190.524 340.275 189.917 341.289 188.695C342.302 187.473 342.808 185.821 342.808 183.749C342.808 181.678 342.302 180.063 341.28 178.85C340.257 177.628 338.918 177.021 337.272 177.021C335.626 177.021 334.25 177.618 333.237 178.822C332.224 180.026 331.717 181.668 331.717 183.749C331.717 185.83 332.224 187.473 333.237 188.695H333.219Z" fill="#323232"></path>
    <path d="M357.021 194.089C353.112 194.089 351.158 191.933 351.158 187.613V177.637H348.209V173.942H351.276L352.262 168.147H355.456V173.942H363.046V177.637H355.456V187.491C355.456 189.302 356.098 190.207 357.382 190.207C358.595 190.207 359.671 189.078 360.639 186.801L363.941 188.536C362.313 192.232 360.006 194.089 357.03 194.089H357.021Z" fill="#323232"></path>
    <path d="M365.298 202.599C363.416 202.599 361.851 202.067 360.621 200.975L362.195 197.523C362.955 198.437 363.787 198.904 364.665 198.904C365.85 198.904 366.438 198.12 366.438 196.552V173.933H370.681V196.636C370.681 198.736 370.174 200.257 369.161 201.199C368.148 202.123 366.854 202.59 365.298 202.608V202.59V202.599ZM368.555 170.62C367.849 170.648 367.18 170.387 366.673 169.892C366.438 169.659 366.239 169.369 366.112 169.033C365.986 168.716 365.913 168.371 365.931 168.016C365.931 167.671 365.986 167.316 366.112 166.99C366.239 166.673 366.438 166.365 366.673 166.131C367.189 165.655 367.858 165.375 368.555 165.375C369.251 165.375 369.921 165.637 370.437 166.131C370.69 166.374 370.889 166.663 371.015 166.99C371.142 167.316 371.215 167.671 371.196 168.016C371.196 168.362 371.142 168.716 370.997 169.015C370.853 169.313 370.672 169.621 370.418 169.855C370.165 170.097 369.885 170.293 369.559 170.424C369.233 170.554 368.899 170.61 368.546 170.61L368.555 170.62Z" fill="#323232"></path>
    <path d="M381.22 194.089C379.04 194.089 377.285 193.519 375.937 192.409C374.589 191.289 373.91 189.787 373.91 187.883C373.91 186.157 374.616 184.692 376.018 183.488C377.42 182.284 379.184 181.687 381.301 181.687C383.418 181.687 385.309 182.396 386.811 183.833V181.444C386.811 180.035 386.458 178.953 385.77 178.178C385.083 177.413 384.088 177.021 382.803 177.021C380.207 177.021 378.596 178.384 377.972 181.109L374.082 180.25C374.598 178.15 375.638 176.48 377.185 175.267C378.732 174.045 380.659 173.438 382.966 173.438C385.481 173.438 387.462 174.119 388.928 175.482C390.375 176.844 391.108 178.841 391.108 181.454V193.575H386.974V191.093C385.58 193.062 383.672 194.051 381.238 194.051L381.22 194.079V194.089ZM382.007 190.841C383.889 190.841 385.49 189.871 386.802 187.93V187.323C385.499 185.7 383.889 184.888 382.007 184.888C380.912 184.888 380.008 185.168 379.338 185.718C379.013 185.961 378.759 186.288 378.578 186.661C378.397 187.034 378.307 187.445 378.307 187.846C378.307 188.247 378.379 188.676 378.56 189.05C378.732 189.423 378.995 189.759 379.32 190.011C379.999 190.561 380.876 190.841 382.016 190.841L381.998 190.86L382.007 190.841Z" fill="#323232"></path>
    <path d="M395.215 193.594V173.933H399.349V177.339C400.408 174.856 402.199 173.615 404.777 173.615C406.297 173.615 407.563 174.119 408.54 175.155C409.536 176.181 410.033 177.562 410.033 179.289C410.033 180.315 409.852 181.351 409.526 182.331L405.636 181.92C405.718 181.388 405.763 180.847 405.79 180.297C405.79 178.262 404.976 177.255 403.357 177.255C402.262 177.255 401.33 177.852 400.589 179.056C399.847 180.259 399.467 181.836 399.467 183.824V193.594H395.224H395.215Z" fill="#323232"></path>
    <path d="M280.388 176.956C283.554 175.146 287.878 172.663 287.878 165.432H282.631C282.631 169.472 280.722 170.564 277.836 172.234C274.67 174.045 270.346 176.527 270.346 183.759H275.593C275.593 179.718 277.502 178.626 280.388 176.956Z" fill="#FF3C00"></path>
    <path d="M289.452 175.286C289.452 179.326 287.543 180.418 284.657 182.088C281.491 183.899 277.167 186.381 277.167 193.613H282.414C282.414 189.572 284.323 188.48 287.209 186.81C290.375 185 294.699 182.518 294.699 175.286H289.452Z" fill="#FF3C00"></path>
    <path d="M7.32767 172.663H12.9184L20.2461 193.566H15.7047L14.402 189.656H5.84405L4.54135 193.566H0L7.32767 172.663ZM13.2893 186.334L10.2497 177.227H9.98735L6.94772 186.334H13.2893Z" fill="#323232"></path>
    <path d="M28.4603 183.115C28.4603 176.368 32.1694 172.393 38.0406 172.393C42.4734 172.393 46.0287 174.726 46.4357 179.914H42.211C41.632 177.32 39.9856 176.237 37.8958 176.237C34.3677 176.237 32.8841 179.252 32.8841 183.105C32.8841 186.959 34.3315 190.001 37.8958 190.001C39.9765 190.001 41.632 188.928 42.211 186.297H46.4357C46.0287 191.523 42.4734 193.855 37.9863 193.855C32.1694 193.855 28.4603 189.88 28.4603 183.105V183.115Z" fill="#323232"></path>
    <path d="M48.2179 183.115C48.2179 176.695 52.0355 172.393 57.8886 172.393C63.7417 172.393 67.5593 176.695 67.5593 183.115C67.5593 189.535 63.7417 193.865 57.8886 193.865C52.0355 193.865 48.2179 189.507 48.2179 183.115ZM57.8886 190.011C61.2177 190.011 63.0994 187.267 63.0994 183.115C63.0994 178.962 61.2177 176.247 57.8886 176.247C54.5595 176.247 52.6778 178.934 52.6778 183.115C52.6778 187.295 54.5595 190.011 57.8886 190.011Z" fill="#323232"></path>
    <path d="M70.2914 172.663H74.8056L82.9655 186.399H83.056V172.663H87.3983V193.566H82.7122L74.7242 180.101H74.6337V193.566H70.2914V172.663Z" fill="#323232"></path>
    <path d="M90.8812 172.663H104.279V176.545H95.2145V181.444H102.714V185.056H95.2145V193.566H90.8722V172.663H90.8812Z" fill="#323232"></path>
    <path d="M106.36 172.663H120.192V176.545H110.693V181.23H119.323V184.72H110.693V189.675H120.481V193.557H106.36V172.654V172.663Z" fill="#323232"></path>
    <path d="M123.259 172.663H131.455C136.838 172.663 139.181 175.556 139.181 179.653C139.181 182.611 137.932 185 135.128 186.045L139.38 193.566H135.092L131.238 186.605H127.592V193.566H123.25V172.663H123.259ZM131.31 182.723C133.68 182.723 134.73 181.5 134.73 179.643C134.73 177.786 133.689 176.536 131.31 176.536H127.601V182.714H131.31V182.723Z" fill="#323232"></path>
    <path d="M141.922 172.663H155.754V176.545H146.255V181.23H154.885V184.72H146.255V189.675H156.043V193.557H141.922V172.654V172.663Z" fill="#323232"></path>
    <path d="M158.83 172.663H163.344L171.504 186.399H171.594V172.663H175.937V193.566H171.25L163.262 180.101H163.172V193.566H158.83V172.663Z" fill="#323232"></path>
    <path d="M178.723 183.115C178.723 176.368 182.432 172.393 188.303 172.393C192.736 172.393 196.291 174.726 196.698 179.914H192.474C191.895 177.32 190.248 176.237 188.158 176.237C184.63 176.237 183.147 179.252 183.147 183.105C183.147 186.959 184.594 190.001 188.158 190.001C190.239 190.001 191.895 188.928 192.474 186.297H196.698C196.291 191.523 192.736 193.855 188.249 193.855C182.432 193.855 178.723 189.88 178.723 183.105V183.115Z" fill="#323232"></path>
    <path d="M199.331 172.663H213.163V176.545H203.664V181.23H212.294V184.72H203.664V189.675H213.452V193.557H199.331V172.654V172.663Z" fill="#323232"></path>
    <path d="M223.566 172.663H231.79C236.304 172.663 238.357 174.726 238.357 177.889C238.357 180.157 237.344 181.444 235.435 182.07C238.448 182.909 239.751 184.85 239.751 187.445C239.751 190.823 237.489 193.566 232.133 193.566H223.566V172.663ZM231.618 181.146C232.92 181.146 234.024 180.427 234.024 178.729C234.024 177.031 232.92 176.433 231.618 176.433H227.909V181.155H231.618V181.146ZM231.998 189.806C234.431 189.806 235.273 188.462 235.273 186.941C235.273 185.42 234.431 183.983 231.998 183.983H227.918V189.806H231.998Z" fill="#323232"></path>
    <path d="M247.069 185.886L239.742 172.663H244.663L249.295 181.566L253.954 172.663H258.875L251.547 185.886V193.557H247.06V185.886H247.069Z" fill="#323232"></path>
  </g>
  <defs>
    <clipPath id="clip0_1672_680">
      <rect width="828" height="202" fill="white" transform="translate(0 0.608398)"></rect>
    </clipPath>
  </defs>
</svg>
