<svg width="342" height="25" viewBox="0 0 342 25" fill="none" xmlns="http://www.w3.org/2000/svg">
<g clip-path="url(#clip0_1_823)">
<g clip-path="url(#clip1_1_823)">
<path d="M172.081 10.1899C168.561 10.2594 165.72 13.0989 165.65 16.6182H157.442C157.37 13.055 154.459 10.1885 150.879 10.1885C147.298 10.1885 144.387 13.055 144.316 16.6182H136.108C136.036 13.055 133.125 10.1885 129.545 10.1885C125.965 10.1885 123.054 13.055 122.982 16.6182L114.774 16.6182C114.703 13.055 111.792 10.1885 108.211 10.1885C104.631 10.1885 101.72 13.055 101.648 16.6182L93.4408 16.6182C93.3691 13.055 90.4585 10.1885 86.8778 10.1885C83.2978 10.1885 80.3866 13.055 80.3154 16.6182L72.1069 16.6182C72.0357 13.055 69.1245 10.1885 65.5444 10.1885C61.9638 10.1885 59.0532 13.055 58.9815 16.6182L50.7735 16.6182C50.7018 13.055 47.7911 10.1885 44.211 10.1885C40.6304 10.1885 37.7198 13.055 37.648 16.6182L29.4401 16.6182C29.3683 13.055 26.4572 10.1885 22.8771 10.1885C19.2965 10.1885 16.3858 13.055 16.3141 16.6182L8.1066 16.6182C8.03488 13.055 5.12375 10.1885 1.54367 10.1885C1.49377 10.1885 1.44385 10.1891 1.39395 10.1902V8.82181H343L343 10.1893C342.966 10.1888 342.932 10.1886 342.899 10.1886C339.318 10.1886 336.407 13.055 336.336 16.6181L328.128 16.6181C328.056 13.055 325.145 10.1885 321.565 10.1885C317.985 10.1885 315.074 13.055 315.002 16.6181L306.794 16.6181C306.723 13.055 303.812 10.1885 300.231 10.1885C296.651 10.1885 293.74 13.055 293.669 16.6181L285.46 16.6181C285.389 13.055 282.478 10.1885 278.897 10.1885C275.317 10.1885 272.407 13.055 272.335 16.6181L264.127 16.6181C264.055 13.055 261.145 10.1885 257.564 10.1885C253.984 10.1885 251.073 13.055 251.001 16.6181L242.793 16.6181C242.722 13.055 239.811 10.1885 236.231 10.1885C232.65 10.1885 229.739 13.055 229.668 16.6181L221.46 16.6181C221.388 13.055 218.477 10.1885 214.897 10.1885C211.316 10.1885 208.406 13.055 208.334 16.6181L200.126 16.6181C200.054 13.055 197.144 10.1885 193.563 10.1885C189.983 10.1885 187.072 13.055 187 16.6181L178.793 16.6181C178.721 13.0829 175.856 10.2335 172.314 10.189C172.28 10.1885 172.246 10.1886 172.213 10.1886C172.206 10.1886 172.2 10.1886 172.194 10.1886C172.156 10.1888 172.118 10.189 172.081 10.1899Z" fill="#CCCCCC"/>
</g>
</g>
<defs>
<clipPath id="clip0_1_823">
<rect width="342" height="24" fill="white" transform="matrix(-1 0 0 -1 342 24.7202)"/>
</clipPath>
<clipPath id="clip1_1_823">
<rect width="342" height="7.79635" fill="white" transform="matrix(-1 0 0 -1 343 16.6182)"/>
</clipPath>
</defs>
</svg>
