<svg width="342" height="25" viewBox="0 0 342 25" fill="none" xmlns="http://www.w3.org/2000/svg">
<g clip-path="url(#clip0_1_808)">
<g clip-path="url(#clip1_1_808)">
<path d="M-0.89858 15.2816C2.68174 15.2816 5.5926 12.4152 5.66427 8.85206L13.8723 8.85206C13.944 12.4152 16.8548 15.2817 20.4352 15.2817C24.0155 15.2817 26.9263 12.4152 26.998 8.85206L35.2058 8.85206C35.2775 12.4152 38.1883 15.2817 41.7687 15.2817C45.349 15.2817 48.2598 12.4152 48.3315 8.85206L56.5397 8.85206C56.6114 12.4152 59.522 15.2817 63.1027 15.2817C66.6827 15.2817 69.5934 12.4152 69.6651 8.85205L77.8731 8.85205C77.9448 12.4152 80.8555 15.2817 84.4356 15.2817C88.0162 15.2817 90.9268 12.4152 90.9985 8.85205L99.2065 8.85205C99.2783 12.4152 102.189 15.2817 105.769 15.2817C109.35 15.2817 112.261 12.4152 112.332 8.85205L120.54 8.85205C120.612 12.4152 123.523 15.2817 127.103 15.2817C130.684 15.2817 133.594 12.4152 133.666 8.85205L141.874 8.85205C141.946 12.4152 144.856 15.2817 148.437 15.2817C152.017 15.2817 154.928 12.4152 155 8.85205L163.207 8.85205C163.279 12.3873 166.144 15.2367 169.686 15.2811C169.72 15.2817 169.754 15.2816 169.787 15.2816C169.792 15.2816 169.796 15.2816 169.8 15.2816C169.84 15.2814 169.88 15.2809 169.919 15.28C173.439 15.2105 176.28 12.3713 176.35 8.85206L184.558 8.85206C184.63 12.4152 187.541 15.2817 191.121 15.2817C194.701 15.2817 197.613 12.4152 197.684 8.85206L205.892 8.85206C205.964 12.4152 208.875 15.2817 212.455 15.2817C216.035 15.2817 218.946 12.4152 219.018 8.85206L227.226 8.85206C227.297 12.4152 230.208 15.2817 233.789 15.2817C237.369 15.2817 240.28 12.4152 240.351 8.85205L248.559 8.85205C248.631 12.4152 251.542 15.2817 255.122 15.2817C258.702 15.2817 261.613 12.4152 261.685 8.85205L269.893 8.85205C269.964 12.4152 272.875 15.2817 276.456 15.2817C280.036 15.2817 282.947 12.4152 283.019 8.85205L291.227 8.85205C291.298 12.4152 294.209 15.2817 297.789 15.2817C301.37 15.2817 304.28 12.4152 304.352 8.85205L312.56 8.85205C312.632 12.4152 315.543 15.2817 319.123 15.2817C322.703 15.2817 325.614 12.4152 325.686 8.85205L333.893 8.85205C333.965 12.4152 336.876 15.2817 340.456 15.2817C340.506 15.2817 340.556 15.2811 340.606 15.28V16.6484H-0.999794L-1 15.2809C-0.966255 15.2814 -0.932447 15.2816 -0.89858 15.2816Z" fill="white"/>
</g>
</g>
<defs>
<clipPath id="clip0_1_808">
<rect width="342" height="24" fill="white" transform="translate(0 0.75)"/>
</clipPath>
<clipPath id="clip1_1_808">
<rect width="342" height="7.79635" fill="white" transform="translate(-1 8.85205)"/>
</clipPath>
</defs>
</svg>
